PathFileType	4	(X/Y/Z)	SUBJ36_0_static_RCNL2025.trc
DataRate	CameraRate	NumFrames	NumMarkers	Units	OrigDataRate	OrigDataStartFrame	OrigNumFrames
100	100	6	25	mm	100	18	143
Frame#	Time	R_Shoulder			L_Shoulder			C7			J_Notch			R_Elbow			L_Elbow			R_Wrist			L_Wrist			R_Asis			L_Asis			Sacral			Thoracic			Sternum			R_Thigh_Lateral			R_Knee_Lateral			R_Shank_Lateral			R_Ankle_Lateral			R_Heel			R_Toe			L_Thigh_Lateral			L_Knee_Lateral			L_Shank_Lateral			L_Ankle_Lateral			L_Heel			L_Toe		
		X1	Y1	Z1	X2	Y2	Z2	X3	Y3	Z3	X4	Y4	Z4	X5	Y5	Z5	X6	Y6	Z6	X7	Y7	Z7	X8	Y8	Z8	X9	Y9	Z9	X10	Y10	Z10	X11	Y11	Z11	X12	Y12	Z12	X13	Y13	Z13	X14	Y14	Z14	X15	Y15	Z15	X16	Y16	Z16	X17	Y17	Z17	X18	Y18	Z18	X19	Y19	Z19	X20	Y20	Z20	X21	Y21	Z21	X22	Y22	Z22	X23	Y23	Z23	X24	Y24	Z24	X25	Y25	Z25
18	0.17000000	-314.052155	1362.182251	-73.897942	-332.414154	1345.431396	-417.804077	-392.746338	1416.191528	-228.927689	-252.400513	1317.572876	-239.722122	-334.049316	1055.025146	43.430817	-345.460144	1040.898926	-505.941101	-256.584045	830.076111	55.470040	-231.148720	836.726562	-511.451157	-226.331985	925.358337	-115.380783	-214.827179	921.057678	-345.044708	-439.687653	907.852783	-235.233780	-449.884155	1148.983032	-234.579269	-207.079941	1140.316040	-236.019623	-350.932251	513.291443	-64.111900	-356.483124	452.187988	-113.156624	-398.014984	244.551468	-71.484726	-351.259949	99.643639	-119.793350	-455.959778	49.073044	-185.493271	-288.999023	49.786900	-166.465439	-331.299835	527.856873	-426.890930	-346.403442	454.215637	-354.052917	-385.158600	242.351273	-389.657684	-399.948700	75.837036	-311.877136	-442.462646	46.334305	-261.448059	-271.831940	48.447071	-281.024384
19	0.18000000	-314.053650	1362.176025	-73.898102	-332.377380	1345.419922	-417.792938	-392.909973	1416.126709	-228.914276	-252.420471	1317.577148	-239.703720	-334.047485	1055.052002	43.435135	-345.435333	1040.940552	-505.959167	-256.666901	830.055420	55.480975	-231.128716	836.749878	-511.447495	-226.334000	925.331238	-115.335632	-214.836182	921.079529	-345.074860	-439.767090	907.827515	-235.209717	-449.899811	1148.919800	-234.552597	-207.175568	1140.336060	-236.054764	-350.985413	513.241455	-64.093071	-356.498932	452.144806	-113.153519	-398.016022	244.538635	-71.489098	-351.229919	99.651749	-119.780876	-455.960052	49.073326	-185.493149	-289.000000	49.789738	-166.459976	-331.337036	527.834961	-426.833679	-346.401978	454.214081	-354.044189	-385.176025	242.375168	-389.678253	-400.015991	75.823936	-311.898499	-442.468079	46.336227	-261.453217	-271.895752	48.434414	-281.022797
20	0.19000000	-314.175323	1362.208862	-73.836159	-332.471191	1345.369385	-417.799622	-392.854919	1416.128906	-228.867859	-252.406586	1317.580078	-239.694290	-334.130188	1055.091431	43.504745	-345.450043	1040.911865	-505.894012	-256.721588	830.087036	55.517230	-231.222733	836.691498	-511.330612	-226.333450	925.377808	-115.355644	-214.842377	921.021179	-345.100067	-439.792847	907.851196	-235.178650	-449.971893	1148.927124	-234.506348	-207.070923	1140.370850	-236.046402	-350.962860	513.253906	-64.101685	-356.573578	452.199493	-113.085892	-397.997314	244.518738	-71.503059	-351.269928	99.675690	-119.744293	-455.962555	49.089100	-185.488327	-288.978302	49.771557	-166.468475	-331.382172	527.865784	-426.903900	-346.426300	454.195862	-354.077515	-385.189972	242.341537	-389.639740	-399.934143	75.827766	-311.888275	-442.466003	46.349094	-261.446869	-271.911926	48.483410	-281.079163
21	0.20000000	-314.232788	1362.253662	-73.775963	-332.434479	1345.427612	-417.796173	-392.849213	1416.150146	-228.859177	-252.379913	1317.633301	-239.678406	-334.144409	1055.111694	43.514378	-345.485779	1040.942017	-505.838928	-256.774338	830.126099	55.558522	-231.287376	836.670410	-511.256805	-226.333557	925.373108	-115.351303	-214.860825	921.059021	-345.006287	-439.766449	907.868591	-235.185776	-449.979340	1148.931030	-234.501801	-207.028137	1140.394043	-236.013077	-350.993317	513.260193	-64.089874	-356.573669	452.205902	-113.086838	-398.020691	244.573257	-71.497543	-351.290161	99.688705	-119.730576	-456.032227	49.110260	-185.451767	-289.046661	49.817844	-166.417343	-331.376129	527.816284	-426.800293	-346.374756	454.223785	-354.028778	-385.097443	242.352676	-389.679779	-399.908508	75.800957	-311.901123	-442.449982	46.331276	-261.463074	-271.958405	48.451675	-281.078064
22	0.21000000	-314.231049	1362.243530	-73.786324	-332.477234	1345.447632	-417.758148	-393.000366	1416.145630	-228.839767	-252.453461	1317.650024	-239.578720	-334.177582	1055.126221	43.542374	-345.506226	1040.908569	-505.813721	-256.814865	830.141113	55.622758	-231.333351	836.666260	-511.167450	-226.350647	925.324890	-115.309357	-214.944382	921.048157	-344.913605	-439.867035	907.826538	-235.093674	-449.991882	1148.939209	-234.481644	-207.007217	1140.503174	-235.953674	-350.977509	513.227234	-64.082176	-356.546692	452.171783	-113.112068	-398.011230	244.558456	-71.477058	-351.289825	99.688492	-119.731247	-455.973267	49.095959	-185.482758	-289.001862	49.784142	-166.451965	-331.382660	527.829895	-426.775879	-346.376343	454.227661	-354.056091	-385.164185	242.408279	-389.639435	-399.978271	75.827263	-311.846924	-442.457184	46.332466	-261.470428	-271.887543	48.458824	-280.962280
23	0.22000000	-314.197235	1362.240356	-73.817535	-332.627014	1345.377319	-417.761230	-392.999664	1416.167969	-228.848999	-252.449860	1317.678101	-239.638885	-334.254028	1055.144653	43.594112	-345.535645	1040.795898	-505.741364	-256.883194	830.152557	55.708905	-231.291191	836.645355	-511.072937	-226.395905	925.341248	-115.279266	-214.940735	921.091553	-344.914032	-439.911285	907.878052	-235.048767	-450.065796	1148.950317	-234.434357	-207.049408	1140.556519	-235.919647	-350.948059	513.222778	-64.131317	-356.576477	452.203674	-113.074593	-398.013000	244.560745	-71.517548	-351.423981	99.779999	-119.607857	-456.028320	49.107670	-185.453873	-288.981354	49.789608	-166.417633	-331.383270	527.856201	-426.782196	-346.380707	454.229248	-354.014862	-385.146240	242.348267	-389.615448	-399.961517	75.787910	-311.863708	-442.434143	46.347881	-261.468689	-271.873779	48.458313	-280.948486
